<svg xmlns="http://www.w3.org/2000/svg" xml:space="preserve" id="Layer_1" x="0" y="0" version="1.1" viewBox="0 0 140 153.6"><style>.st0{fill:#008175;stroke:#008175;stroke-width:2}</style><path d="M7 76.6h6c1.1 0 2 .9 2 2v70c0 1.1-.9 2-2 2H7c-1.1 0-2-.9-2-2v-70c0-1.1.9-2 2-2zM27 21.6h6c1.1 0 2 .9 2 2v95c0 1.1-.9 2-2 2h-6c-1.1 0-2-.9-2-2v-95c0-1.1.9-2 2-2zM47 41.6h6c1.1 0 2 .9 2 2v105c0 1.1-.9 2-2 2h-6c-1.1 0-2-.9-2-2v-105c0-1.1.9-2 2-2zM67 2.6h6c1.1 0 2 .9 2 2v95c0 1.1-.9 2-2 2h-6c-1.1 0-2-.9-2-2v-95c0-1.1.9-2 2-2zM87 41.6h6c1.1 0 2 .9 2 2v105c0 1.1-.9 2-2 2h-6c-1.1 0-2-.9-2-2v-105c0-1.1.9-2 2-2zM107 21.6h6c1.1 0 2 .9 2 2v95c0 1.1-.9 2-2 2h-6c-1.1 0-2-.9-2-2v-95c0-1.1.9-2 2-2zM127 76.6h6c1.1 0 2 .9 2 2v70c0 1.1-.9 2-2 2h-6c-1.1 0-2-.9-2-2v-70c0-1.1.9-2 2-2z" class="st0"/><path d="M7 140.6h126c1.1 0 2 .9 2 2v6c0 1.1-.9 2-2 2H7c-1.1 0-2-.9-2-2v-6c0-1.1.9-2 2-2z" class="st0"/></svg>